# xmcd CD database file
#
# Track frame offsets:
#	150
#	12870
#	32485
#	55362
#
# Disc length: 862 seconds
#
# Revision: 1
# Processed by: cddbd v1.5.1PL0 Copyright (c) Steve Scherf et al.
# Submitted via: CDex 1.51
#
DISCID=27035c04
DTITLE=KAHIMI KARIE - KAHIMI KARIE REMIXES
DYEAR=1998
DGENRE=Pop
TTITLE0=FRUIT PARADISE
TTITLE1=SUPERFREAK (Sweet Robots Remix)
TTITLE2=DAVID HAMILTON (St. Etienne Remix)
TTITLE3=SUPERFREAK (Sweet Robots Reprise)
EXTD=YEAR: 1998
EXTT0=
EXTT1=
EXTT2=
EXTT3=
PLAYORDER=
